# xmcd
#
# Track frame offsets:
#	150
#	19900
#	34543
#	49618
#	62218
#	80312
#	95038
#	106026
#	122002
#	139930
#	154630
#	171204
#	183578
#
# Disc length: 2636 seconds
#
# Revision: 1
# Processed by: cddbd v1.5.2PL0 Copyright (c) Steve Scherf et al.
# Submitted via: audiograbber 1.82.02
#
DISCID=a50a4a0d
DTITLE=Legends of the Beach - L.O.B.
DYEAR=2007
DGENRE=Beach Music
TTITLE0=Feels Like the Real Thing
TTITLE1=Far Away Places
TTITLE2=I Picked A Bad Time for me to Get Old
TTITLE3=I'm Gonna Do Beautiful Things for You
TTITLE4=Begin the Beguine
TTITLE5=I Ain't Got noghting to Lose
TTITLE6=Summer Wind
TTITLE7=Summertime's Calling Me
TTITLE8=Livin' Here, Lovin' Her Is Killin' Me
TTITLE9=Let's Get a Thing Going On
TTITLE10=Street Corner Sernade
TTITLE11=Until the Real thing Comes Along
TTITLE12=I Love Beach Music
EXTD=
EXTT0=
EXTT1=
EXTT2=
EXTT3=
EXTT4=
EXTT5=
EXTT6=
EXTT7=
EXTT8=
EXTT9=
EXTT10=
EXTT11=
EXTT12=
PLAYORDER=
